<svg width="26" height="30" viewBox="0 0 26 30" fill="none" xmlns="http://www.w3.org/2000/svg">
<g id="&#240;&#159;&#166;&#134; icon &#34;birthday cake&#34;">
<path id="Vector" d="M0 0.474609H25.885V30H0V0.474609Z" fill="white" fill-opacity="0.01"/>
<path id="Vector_2" d="M4.31396 25.0791H21.5706V15.2373H4.31396V25.0791Z" fill="#4114FF"/>
<g id="Group">
<path id="Vector_3" d="M21.5709 25.0792H4.31431M21.5709 25.0792H2.15723H4.31431M21.5709 25.0792H23.728M21.5709 25.0792V15.2374H4.31431V25.0792" stroke="#FF6245" stroke-width="1.5" stroke-linecap="round" stroke-linejoin="round"/>
<path id="Vector_4" d="M21.5706 21.3884L19.4135 20.1581L17.2564 21.3884L15.0994 20.1581L12.9423 21.3884L10.7852 20.1581L8.62812 21.3884L6.47104 20.1581L4.31396 21.3884" stroke="white" stroke-width="1.5" stroke-linecap="round" stroke-linejoin="round"/>
<path id="Vector_5" d="M17.2565 15.2374V9.70135" stroke="#FF6245" stroke-width="1.5" stroke-linecap="round" stroke-linejoin="round"/>
<path id="Vector_6" d="M12.9425 15.2374V9.70135" stroke="#FF6245" stroke-width="1.5" stroke-linecap="round" stroke-linejoin="round"/>
<path id="Vector_7" d="M8.62793 15.2374V9.70135" stroke="#FF6245" stroke-width="1.5" stroke-linecap="round" stroke-linejoin="round"/>
<path id="Vector_8" d="M17.2565 6.62573V5.39551" stroke="#FF6245" stroke-width="1.5" stroke-linecap="round" stroke-linejoin="round"/>
<path id="Vector_9" d="M12.9425 6.62573V5.39551" stroke="#FF6245" stroke-width="1.5" stroke-linecap="round" stroke-linejoin="round"/>
<path id="Vector_10" d="M8.62793 6.62573V5.39551" stroke="#FF6245" stroke-width="1.5" stroke-linecap="round" stroke-linejoin="round"/>
<path id="Vector_11" d="M4.31396 15.2374V25.0792" stroke="#FF6245" stroke-width="1.5" stroke-linecap="round" stroke-linejoin="round"/>
<path id="Vector_12" d="M21.5709 15.2374V25.0792" stroke="#FF6245" stroke-width="1.5" stroke-linecap="round" stroke-linejoin="round"/>
</g>
</g>
</svg>
