<svg width="23" height="25" viewBox="0 0 23 25" fill="none" xmlns="http://www.w3.org/2000/svg">
<g id="&#240;&#159;&#166;&#134; icon &#34;target two&#34;">
<g id="Group">
<path id="Vector" d="M11.354 22.0085C16.2152 22.0085 20.1549 17.6875 20.1549 12.3559C20.1549 7.0243 16.2152 2.70337 11.354 2.70337C6.49279 2.70337 2.5531 7.0243 2.5531 12.3559C2.5531 17.6875 6.49279 22.0085 11.354 22.0085Z" stroke="#4114FF" stroke-width="2" stroke-miterlimit="2" stroke-linejoin="round"/>
<path id="Vector_2" d="M11.354 16.8983C13.6422 16.8983 15.4956 14.8656 15.4956 12.3559C15.4956 9.84625 13.6422 7.81354 11.354 7.81354C9.06576 7.81354 7.2124 9.84625 7.2124 12.3559C7.2124 14.8656 9.06576 16.8983 11.354 16.8983Z" stroke="#4114FF" stroke-width="2" stroke-miterlimit="2" stroke-linejoin="round"/>
<g id="Group_2">
<path id="Vector_3" d="M1 12.356H21.708" stroke="#4114FF" stroke-width="2" stroke-miterlimit="2" stroke-linecap="round" stroke-linejoin="round"/>
<path id="Vector_4" d="M11.354 1V23.7119" stroke="#4114FF" stroke-width="2" stroke-miterlimit="2" stroke-linecap="round" stroke-linejoin="round"/>
</g>
</g>
</g>
</svg>
